<?xml version="1.0" encoding="utf-8"?>
<!-- Generator: Adobe Illustrator 17.0.0, SVG Export Plug-In . SVG Version: 6.00 Build 0)  -->
<svg version="1.2" baseProfile="tiny" id="Layer_1" xmlns="http://www.w3.org/2000/svg" xmlns:xlink="http://www.w3.org/1999/xlink"
	 x="0px" y="0px" width="208.043px" height="208.043px" viewBox="0 0 208.043 208.043" overflow="scroll" xml:space="preserve">
<circle cx="103.894" cy="104.021" r="104.021"/>
<rect x="44.861" y="75.837" fill="#E6E7E8" width="17.266" height="56.368"/>
<rect x="78.377" y="75.837" fill="#E6E7E8" width="17.266" height="56.368"/>
<rect x="111.893" y="75.837" fill="#E6E7E8" width="17.266" height="56.368"/>
<rect x="145.408" y="75.837" fill="#E6E7E8" width="17.266" height="56.368"/>
<polygon fill="#E6E7E8" points="173.506,151.502 173.506,142.869 166.737,142.869 166.737,134.237 41.052,134.237 41.052,142.869 
	34.283,142.869 34.283,151.502 25.921,151.502 25.921,160.135 181.868,160.135 181.868,151.502 "/>
<polygon fill="#E6E7E8" points="182.186,60.12 104.507,25.467 26.806,60.071 26.663,60.07 26.661,66.926 36.562,66.929 
	36.56,73.839 171.213,73.881 171.215,66.972 182.326,66.975 182.329,60.12 "/>
</svg>
