<?xml version="1.0" encoding="utf-8"?>
<!-- Generator: Adobe Illustrator 17.0.0, SVG Export Plug-In . SVG Version: 6.00 Build 0)  -->
<svg version="1.2" baseProfile="tiny" id="Layer_1" xmlns="http://www.w3.org/2000/svg" xmlns:xlink="http://www.w3.org/1999/xlink"
	 x="0px" y="0px" width="155.889px" height="134.668px" viewBox="0 0 155.889 134.668" overflow="scroll" xml:space="preserve">
<rect x="18.882" y="50.37" fill="#E6E7E8" width="17.266" height="56.368"/>
<rect x="52.398" y="50.37" fill="#E6E7E8" width="17.266" height="56.368"/>
<rect x="85.914" y="50.37" fill="#E6E7E8" width="17.266" height="56.368"/>
<rect x="119.43" y="50.37" fill="#E6E7E8" width="17.266" height="56.368"/>
<polygon fill="#E6E7E8" points="147.527,126.035 147.527,117.402 140.758,117.402 140.758,108.769 15.073,108.769 15.073,117.402 
	8.304,117.402 8.304,126.035 -0.058,126.035 -0.058,134.668 155.889,134.668 155.889,126.035 "/>
<polygon fill="#E6E7E8" points="156.207,34.652 78.528,0 0.827,34.603 0.685,34.603 0.682,41.459 10.584,41.462 10.581,48.372 
	145.234,48.414 145.237,41.504 156.348,41.508 156.35,34.652 "/>
</svg>
